<?xml version="1.0" encoding="iso-8859-1"?>
<!-- Generator: Adobe Illustrator 19.0.0, SVG Export Plug-In . SVG Version: 6.00 Build 0)  -->
<svg version="1.1" id="Capa_1" xmlns="http://www.w3.org/2000/svg" xmlns:xlink="http://www.w3.org/1999/xlink" x="0px" y="0px"
	 viewBox="0 0 480 480" style="enable-background:new 0 0 480 480;" xml:space="preserve">
<path style="fill:#FFE4B6;" d="M52,56v324h252c19.848,0,36,15.832,36,35.288c0,16.008-13.28,29.032-29.6,29.032
	c-13.496,0-24.48-10.776-24.48-24.024h8c0,8.832,7.392,16.024,16.48,16.024c11.912,0,21.6-9.44,21.6-21.032
	C332,400.24,319.44,388,304,388c-19.848,0-36,15.752-36,35.112C268,447.864,288.64,468,314,468h6c24.264,0,44-19.744,44-44V56
	c0-18.536,9.776-34.792,24.416-44H96C71.736,12,52,31.744,52,56z M220,344c0,2.208-1.792,4-4,4h-32c-2.208,0-4-1.792-4-4v-32
	c0-2.208,1.792-4,4-4h32c2.208,0,4,1.792,4,4V344z M116,128c0-5.344,2.08-10.36,5.856-14.144l32-32C157.64,78.08,162.664,76,168,76
	h88c5.336,0,10.36,2.08,14.144,5.856l32,32C305.92,117.64,308,122.656,308,128v48c0,6.024-2.672,11.664-7.336,15.48L220,257.488V280
	c0,2.208-1.792,4-4,4h-32c-2.208,0-4-1.792-4-4v-32c0-6.024,2.672-11.664,7.336-15.48L268,166.512V136.28L247.712,116H176.28
	L156,136.28V176c0,2.208-1.792,4-4,4h-32c-2.208,0-4-1.792-4-4V128z"/>
<g>
	<rect x="188" y="316" style="fill:#00D3E1;" width="24" height="24"/>
	<path style="fill:#00D3E1;" d="M148,134.624c0-1.064,0.424-2.08,1.168-2.832l22.632-22.624c0.752-0.752,1.768-1.168,2.832-1.168
		h74.744c1.064,0,2.08,0.424,2.832,1.168l22.632,22.624c0.752,0.752,1.168,1.768,1.168,2.832v33.792c0,1.2-0.536,2.336-1.472,3.096
		l-82.136,67.2C189.608,241,188,244.384,188,248v28h24v-20.416c0-1.2,0.536-2.336,1.472-3.096l82.136-67.2
		c2.792-2.288,4.4-5.672,4.4-9.288v-48c0-3.16-1.28-6.248-3.512-8.488l-32-32C262.248,85.28,259.16,84,256,84h-88
		c-3.16,0-6.248,1.28-8.488,3.512l-32,32C125.28,121.752,124,124.84,124,128v44h24V134.624z"/>
</g>
<path style="fill:#FFE4B6;" d="M260,423.112c0-14.48,7.352-27.288,18.56-35.112H52c-22.056,0-40,17.944-40,40s17.944,40,40,40
	h233.584C270.256,458.656,260,442.056,260,423.112z"/>
<g>
	<path style="fill:#120536;" d="M422,0h-6H96C65.12,0,40,25.128,40,56v321.456C17.104,382.896,0,403.464,0,428
		c0,28.672,23.328,52,52,52h262h6c30.88,0,56-25.128,56-56V56c0-22.056,17.944-40,40-40h6c23.16,0,42,18.344,42,40.888
		C464,74.048,449.648,88,432,88c-13.232,0-24-10.448-24-23.288c0-9.392,7.896-17.032,17.6-17.032c6.88,0,12.48,5.392,12.48,12.024
		h16c0-15.456-12.776-28.024-28.48-28.024c-18.528,0-33.6,14.824-33.6,33.032C392,86.376,409.944,104,432,104
		c26.472,0,48-21.136,48-47.112C480,25.52,453.984,0,422,0z M52,464c-19.848,0-36-16.152-36-36s16.152-36,36-36h216.048
		C260.576,400.312,256,411.184,256,423.112c0,16.048,6.84,30.536,17.776,40.888H52z M360,56v368c0,22.056-17.944,40-40,40h-6
		c-23.16,0-42-18.344-42-40.888c0-17.16,14.352-31.112,32-31.112c13.232,0,24,10.448,24,23.288c0,9.392-7.896,17.032-17.6,17.032
		c-6.88,0-12.48-5.392-12.48-12.024h-16c0,15.456,12.776,28.024,28.48,28.024c18.528,0,33.6-14.824,33.6-33.032
		C344,393.624,326.056,376,304,376H56V56c0-22.056,17.944-40,40-40h280.888C366.48,26.176,360,40.336,360,56z"/>
	<path style="fill:#120536;" d="M120,184h32c4.416,0,8-3.576,8-8v-38.064L177.944,120h68.12L264,137.936v26.688l-79.2,64.8
		C179.208,234,176,240.776,176,248v32c0,4.424,3.584,8,8,8h32c4.416,0,8-3.576,8-8v-20.624l79.2-64.8
		C308.792,190,312,183.224,312,176v-48c0-6.408-2.496-12.44-7.032-16.968l-32-32C268.44,74.496,262.408,72,256,72h-88
		c-6.408,0-12.44,2.496-16.968,7.032l-32,32C114.496,115.56,112,121.592,112,128v48C112,180.424,115.584,184,120,184z M128,128
		c0-2.104,0.856-4.168,2.344-5.656l32-32C163.832,88.848,165.896,88,168,88h88c2.104,0,4.168,0.848,5.656,2.344l32,32
		c1.488,1.488,2.344,3.552,2.344,5.656v48c0,2.408-1.072,4.664-2.936,6.184l-82.136,67.2c-1.848,1.528-2.928,3.8-2.928,6.2V272h-16
		v-24c0-2.408,1.072-4.664,2.936-6.184l82.136-67.2c1.848-1.528,2.928-3.8,2.928-6.2v-33.792c0-2.128-0.84-4.16-2.344-5.656
		l-22.632-22.624c-1.496-1.504-3.528-2.344-5.656-2.344h-74.744c-2.12,0-4.16,0.84-5.656,2.344l-22.632,22.624
		c-1.496,1.504-2.336,3.528-2.336,5.656V168h-16V128z"/>
	<path style="fill:#120536;" d="M216,304h-32c-4.416,0-8,3.576-8,8v32c0,4.424,3.584,8,8,8h32c4.416,0,8-3.576,8-8v-32
		C224,307.576,220.416,304,216,304z M208,336h-16v-16h16V336z"/>
</g>
<g>
</g>
<g>
</g>
<g>
</g>
<g>
</g>
<g>
</g>
<g>
</g>
<g>
</g>
<g>
</g>
<g>
</g>
<g>
</g>
<g>
</g>
<g>
</g>
<g>
</g>
<g>
</g>
<g>
</g>
</svg>
